<?xml version="1.0" encoding="UTF-8" standalone="no"?>
<!DOCTYPE svg PUBLIC "-//W3C//DTD SVG 1.1//EN" "http://www.w3.org/Graphics/SVG/1.1/DTD/svg11.dtd">
<svg width="100%" height="100%" viewBox="0 0 1418 1772" version="1.1" xmlns="http://www.w3.org/2000/svg" xmlns:xlink="http://www.w3.org/1999/xlink" xml:space="preserve" xmlns:serif="http://www.serif.com/" style="fill-rule:evenodd;clip-rule:evenodd;stroke-linecap:round;stroke-miterlimit:10;">
    <g transform="matrix(1.25,0,0,1.25,0,0)">
        <g transform="matrix(1.02778,0,0,1.02778,0,0)">
            <g transform="matrix(1.45862,0,0,1.45862,69.1724,322.552)">
                <rect x="0" y="0" width="60" height="60" style="fill-opacity:0;"/>
            </g>
            <g transform="matrix(1.45862,0,0,1.45862,69.1724,322.552)">
                <rect x="0" y="0" width="60" height="60" style="fill:none;stroke:black;stroke-width:1px;"/>
            </g>
            <g transform="matrix(1.45862,0,0,1.45862,171.276,278.793)">
                <rect x="0" y="0" width="60" height="60" style="fill-opacity:0;"/>
            </g>
            <g transform="matrix(1.45862,0,0,1.45862,171.276,278.793)">
                <rect x="0" y="0" width="60" height="60" style="fill:none;stroke:black;stroke-width:1px;"/>
            </g>
            <g transform="matrix(1.45862,0,0,1.45862,273.379,235.034)">
                <rect x="0" y="0" width="60" height="60" style="fill-opacity:0;"/>
            </g>
            <g transform="matrix(1.45862,0,0,1.45862,273.379,235.034)">
                <rect x="0" y="0" width="60" height="60" style="fill:none;stroke:black;stroke-width:1px;"/>
            </g>
            <g transform="matrix(1.45862,0,0,1.45862,375.483,191.276)">
                <rect x="0" y="0" width="60" height="60" style="fill-opacity:0;"/>
            </g>
            <g transform="matrix(1.45862,0,0,1.45862,375.483,191.276)">
                <rect x="0" y="0" width="60" height="60" style="fill:none;stroke:black;stroke-width:1px;"/>
            </g>
            <g transform="matrix(1.45862,0,0,1.45862,477.586,147.517)">
                <rect x="0" y="0" width="60" height="60" style="fill-opacity:0;"/>
            </g>
            <g transform="matrix(1.45862,0,0,1.45862,477.586,147.517)">
                <rect x="0" y="0" width="60" height="60" style="fill:none;stroke:black;stroke-width:1px;"/>
            </g>
            <g transform="matrix(1.45862,0,0,1.45862,579.69,103.759)">
                <rect x="0" y="0" width="60" height="60" style="fill-opacity:0;"/>
            </g>
            <g transform="matrix(1.45862,0,0,1.45862,579.69,103.759)">
                <rect x="0" y="0" width="60" height="60" style="fill:none;stroke:black;stroke-width:1px;"/>
            </g>
            <g transform="matrix(1.45862,0,0,1.45862,112.931,424.655)">
                <rect x="0" y="0" width="60" height="60" style="fill-opacity:0;"/>
            </g>
            <g transform="matrix(1.45862,0,0,1.45862,112.931,424.655)">
                <rect x="0" y="0" width="60" height="60" style="fill:none;stroke:black;stroke-width:1px;"/>
            </g>
            <g transform="matrix(1.45862,0,0,1.45862,215.034,380.896)">
                <rect x="0" y="0" width="60" height="60" style="fill-opacity:0;"/>
            </g>
            <g transform="matrix(1.45862,0,0,1.45862,215.034,380.896)">
                <rect x="0" y="0" width="60" height="60" style="fill:none;stroke:black;stroke-width:1px;"/>
            </g>
            <g transform="matrix(1.45862,0,0,1.45862,317.138,337.138)">
                <rect x="0" y="0" width="60" height="60" style="fill-opacity:0;"/>
            </g>
            <g transform="matrix(1.45862,0,0,1.45862,317.138,337.138)">
                <rect x="0" y="0" width="60" height="60" style="fill:none;stroke:black;stroke-width:1px;"/>
            </g>
            <g transform="matrix(1.45862,0,0,1.45862,419.241,293.379)">
                <rect x="0" y="0" width="60" height="60" style="fill-opacity:0;"/>
            </g>
            <g transform="matrix(1.45862,0,0,1.45862,419.241,293.379)">
                <rect x="0" y="0" width="60" height="60" style="fill:none;stroke:black;stroke-width:1px;"/>
            </g>
            <g transform="matrix(1.45862,0,0,1.45862,521.345,249.621)">
                <rect x="0" y="0" width="60" height="60" style="fill-opacity:0;"/>
            </g>
            <g transform="matrix(1.45862,0,0,1.45862,521.345,249.621)">
                <rect x="0" y="0" width="60" height="60" style="fill:none;stroke:black;stroke-width:1px;"/>
            </g>
            <g transform="matrix(1.45862,0,0,1.45862,623.448,205.862)">
                <rect x="0" y="0" width="60" height="60" style="fill-opacity:0;"/>
            </g>
            <g transform="matrix(1.45862,0,0,1.45862,623.448,205.862)">
                <rect x="0" y="0" width="60" height="60" style="fill:none;stroke:black;stroke-width:1px;"/>
            </g>
            <g transform="matrix(1.45862,0,0,1.45862,156.69,526.759)">
                <rect x="0" y="0" width="60" height="60" style="fill-opacity:0;"/>
            </g>
            <g transform="matrix(1.45862,0,0,1.45862,156.69,526.759)">
                <rect x="0" y="0" width="60" height="60" style="fill:none;stroke:black;stroke-width:1px;"/>
            </g>
            <g transform="matrix(1.45862,0,0,1.45862,258.793,483)">
                <rect x="0" y="0" width="60" height="60" style="fill-opacity:0;"/>
            </g>
            <g transform="matrix(1.45862,0,0,1.45862,258.793,483)">
                <rect x="0" y="0" width="60" height="60" style="fill:none;stroke:black;stroke-width:1px;"/>
            </g>
            <g transform="matrix(1.45862,0,0,1.45862,360.896,439.241)">
                <rect x="0" y="0" width="60" height="60" style="fill-opacity:0;"/>
            </g>
            <g transform="matrix(1.45862,0,0,1.45862,360.896,439.241)">
                <rect x="0" y="0" width="60" height="60" style="fill:none;stroke:black;stroke-width:1px;"/>
            </g>
            <g transform="matrix(1.45862,0,0,1.45862,463,395.483)">
                <rect x="0" y="0" width="60" height="60" style="fill-opacity:0;"/>
            </g>
            <g transform="matrix(1.45862,0,0,1.45862,463,395.483)">
                <rect x="0" y="0" width="60" height="60" style="fill:none;stroke:black;stroke-width:1px;"/>
            </g>
            <g transform="matrix(1.45862,0,0,1.45862,565.103,351.724)">
                <rect x="0" y="0" width="60" height="60" style="fill-opacity:0;"/>
            </g>
            <g transform="matrix(1.45862,0,0,1.45862,565.103,351.724)">
                <rect x="0" y="0" width="60" height="60" style="fill:none;stroke:black;stroke-width:1px;"/>
            </g>
            <g transform="matrix(1.45862,0,0,1.45862,667.207,307.965)">
                <rect x="0" y="0" width="60" height="60" style="fill-opacity:0;"/>
            </g>
            <g transform="matrix(1.45862,0,0,1.45862,667.207,307.965)">
                <rect x="0" y="0" width="60" height="60" style="fill:none;stroke:black;stroke-width:1px;"/>
            </g>
            <g transform="matrix(1.45862,0,0,1.45862,98.3448,672.621)">
                <rect x="0" y="0" width="60" height="60" style="fill-opacity:0;"/>
            </g>
            <g transform="matrix(1.45862,0,0,1.45862,98.3448,672.621)">
                <rect x="0" y="0" width="60" height="60" style="fill:none;stroke:black;stroke-width:1px;"/>
            </g>
            <g transform="matrix(1.45862,0,0,1.45862,200.448,628.862)">
                <rect x="0" y="0" width="60" height="60" style="fill-opacity:0;"/>
            </g>
            <g transform="matrix(1.45862,0,0,1.45862,200.448,628.862)">
                <rect x="0" y="0" width="60" height="60" style="fill:none;stroke:black;stroke-width:1px;"/>
            </g>
            <g transform="matrix(1.45862,0,0,1.45862,302.552,585.103)">
                <rect x="0" y="0" width="60" height="60" style="fill-opacity:0;"/>
            </g>
            <g transform="matrix(1.45862,0,0,1.45862,302.552,585.103)">
                <rect x="0" y="0" width="60" height="60" style="fill:none;stroke:black;stroke-width:1px;"/>
            </g>
            <g transform="matrix(1.45862,0,0,1.45862,404.655,541.345)">
                <rect x="0" y="0" width="60" height="60" style="fill-opacity:0;"/>
            </g>
            <g transform="matrix(1.45862,0,0,1.45862,404.655,541.345)">
                <rect x="0" y="0" width="60" height="60" style="fill:none;stroke:black;stroke-width:1px;"/>
            </g>
            <g transform="matrix(1.45862,0,0,1.45862,506.759,497.586)">
                <rect x="0" y="0" width="60" height="60" style="fill-opacity:0;"/>
            </g>
            <g transform="matrix(1.45862,0,0,1.45862,506.759,497.586)">
                <rect x="0" y="0" width="60" height="60" style="fill:none;stroke:black;stroke-width:1px;"/>
            </g>
            <g transform="matrix(1.45862,0,0,1.45862,608.862,453.828)">
                <rect x="0" y="0" width="60" height="60" style="fill-opacity:0;"/>
            </g>
            <g transform="matrix(1.45862,0,0,1.45862,608.862,453.828)">
                <rect x="0" y="0" width="60" height="60" style="fill:none;stroke:black;stroke-width:1px;"/>
            </g>
            <g transform="matrix(1.45862,0,0,1.45862,142.103,774.724)">
                <rect x="0" y="0" width="60" height="60" style="fill-opacity:0;"/>
            </g>
            <g transform="matrix(1.45862,0,0,1.45862,142.103,774.724)">
                <rect x="0" y="0" width="60" height="60" style="fill:none;stroke:black;stroke-width:1px;"/>
            </g>
            <g transform="matrix(1.45862,0,0,1.45862,244.207,730.965)">
                <rect x="0" y="0" width="60" height="60" style="fill-opacity:0;"/>
            </g>
            <g transform="matrix(1.45862,0,0,1.45862,244.207,730.965)">
                <rect x="0" y="0" width="60" height="60" style="fill:none;stroke:black;stroke-width:1px;"/>
            </g>
            <g transform="matrix(1.45862,0,0,1.45862,346.31,687.207)">
                <rect x="0" y="0" width="60" height="60" style="fill-opacity:0;"/>
            </g>
            <g transform="matrix(1.45862,0,0,1.45862,346.31,687.207)">
                <rect x="0" y="0" width="60" height="60" style="fill:none;stroke:black;stroke-width:1px;"/>
            </g>
            <g transform="matrix(1.45862,0,0,1.45862,448.414,643.448)">
                <rect x="0" y="0" width="60" height="60" style="fill-opacity:0;"/>
            </g>
            <g transform="matrix(1.45862,0,0,1.45862,448.414,643.448)">
                <rect x="0" y="0" width="60" height="60" style="fill:none;stroke:black;stroke-width:1px;"/>
            </g>
            <g transform="matrix(1.45862,0,0,1.45862,550.517,599.69)">
                <rect x="0" y="0" width="60" height="60" style="fill-opacity:0;"/>
            </g>
            <g transform="matrix(1.45862,0,0,1.45862,550.517,599.69)">
                <rect x="0" y="0" width="60" height="60" style="fill:none;stroke:black;stroke-width:1px;"/>
            </g>
            <g transform="matrix(1.45862,0,0,1.45862,652.621,555.931)">
                <rect x="0" y="0" width="60" height="60" style="fill-opacity:0;"/>
            </g>
            <g transform="matrix(1.45862,0,0,1.45862,652.621,555.931)">
                <rect x="0" y="0" width="60" height="60" style="fill:none;stroke:black;stroke-width:1px;"/>
            </g>
            <g transform="matrix(1.45862,0,0,1.45862,83.7586,920.586)">
                <rect x="0" y="0" width="60" height="60" style="fill-opacity:0;"/>
            </g>
            <g transform="matrix(1.45862,0,0,1.45862,83.7586,920.586)">
                <rect x="0" y="0" width="60" height="60" style="fill:none;stroke:black;stroke-width:1px;"/>
            </g>
            <g transform="matrix(1.45862,0,0,1.45862,185.862,876.827)">
                <rect x="0" y="0" width="60" height="60" style="fill-opacity:0;"/>
            </g>
            <g transform="matrix(1.45862,0,0,1.45862,185.862,876.827)">
                <rect x="0" y="0" width="60" height="60" style="fill:none;stroke:black;stroke-width:1px;"/>
            </g>
            <g transform="matrix(1.45862,0,0,1.45862,287.965,833.069)">
                <rect x="0" y="0" width="60" height="60" style="fill-opacity:0;"/>
            </g>
            <g transform="matrix(1.45862,0,0,1.45862,287.965,833.069)">
                <rect x="0" y="0" width="60" height="60" style="fill:none;stroke:black;stroke-width:1px;"/>
            </g>
            <g transform="matrix(1.45862,0,0,1.45862,390.069,789.31)">
                <rect x="0" y="0" width="60" height="60" style="fill-opacity:0;"/>
            </g>
            <g transform="matrix(1.45862,0,0,1.45862,390.069,789.31)">
                <rect x="0" y="0" width="60" height="60" style="fill:none;stroke:black;stroke-width:1px;"/>
            </g>
            <g transform="matrix(1.45862,0,0,1.45862,492.172,745.552)">
                <rect x="0" y="0" width="60" height="60" style="fill-opacity:0;"/>
            </g>
            <g transform="matrix(1.45862,0,0,1.45862,492.172,745.552)">
                <rect x="0" y="0" width="60" height="60" style="fill:none;stroke:black;stroke-width:1px;"/>
            </g>
            <g transform="matrix(1.45862,0,0,1.45862,594.276,701.793)">
                <rect x="0" y="0" width="60" height="60" style="fill-opacity:0;"/>
            </g>
            <g transform="matrix(1.45862,0,0,1.45862,594.276,701.793)">
                <rect x="0" y="0" width="60" height="60" style="fill:none;stroke:black;stroke-width:1px;"/>
            </g>
            <g transform="matrix(1.45862,0,0,1.45862,127.517,1022.69)">
                <rect x="0" y="0" width="60" height="60" style="fill-opacity:0;"/>
            </g>
            <g transform="matrix(1.45862,0,0,1.45862,127.517,1022.69)">
                <rect x="0" y="0" width="60" height="60" style="fill:none;stroke:black;stroke-width:1px;"/>
            </g>
            <g transform="matrix(1.45862,0,0,1.45862,229.621,978.931)">
                <rect x="0" y="0" width="60" height="60" style="fill-opacity:0;"/>
            </g>
            <g transform="matrix(1.45862,0,0,1.45862,229.621,978.931)">
                <rect x="0" y="0" width="60" height="60" style="fill:none;stroke:black;stroke-width:1px;"/>
            </g>
            <g transform="matrix(1.45862,0,0,1.45862,331.724,935.172)">
                <rect x="0" y="0" width="60" height="60" style="fill-opacity:0;"/>
            </g>
            <g transform="matrix(1.45862,0,0,1.45862,331.724,935.172)">
                <rect x="0" y="0" width="60" height="60" style="fill:none;stroke:black;stroke-width:1px;"/>
            </g>
            <g transform="matrix(1.45862,0,0,1.45862,433.828,891.414)">
                <rect x="0" y="0" width="60" height="60" style="fill-opacity:0;"/>
            </g>
            <g transform="matrix(1.45862,0,0,1.45862,433.828,891.414)">
                <rect x="0" y="0" width="60" height="60" style="fill:none;stroke:black;stroke-width:1px;"/>
            </g>
            <g transform="matrix(1.45862,0,0,1.45862,535.931,847.655)">
                <rect x="0" y="0" width="60" height="60" style="fill-opacity:0;"/>
            </g>
            <g transform="matrix(1.45862,0,0,1.45862,535.931,847.655)">
                <rect x="0" y="0" width="60" height="60" style="fill:none;stroke:black;stroke-width:1px;"/>
            </g>
            <g transform="matrix(1.45862,0,0,1.45862,638.034,803.896)">
                <rect x="0" y="0" width="60" height="60" style="fill-opacity:0;"/>
            </g>
            <g transform="matrix(1.45862,0,0,1.45862,638.034,803.896)">
                <rect x="0" y="0" width="60" height="60" style="fill:none;stroke:black;stroke-width:1px;"/>
            </g>
            <g transform="matrix(1.45862,0,0,1.45862,171.276,1124.79)">
                <rect x="0" y="0" width="60" height="60" style="fill-opacity:0;"/>
            </g>
            <g transform="matrix(1.45862,0,0,1.45862,171.276,1124.79)">
                <rect x="0" y="0" width="60" height="60" style="fill:none;stroke:black;stroke-width:1px;"/>
            </g>
            <g transform="matrix(1.45862,0,0,1.45862,273.379,1081.03)">
                <rect x="0" y="0" width="60" height="60" style="fill-opacity:0;"/>
            </g>
            <g transform="matrix(1.45862,0,0,1.45862,273.379,1081.03)">
                <rect x="0" y="0" width="60" height="60" style="fill:none;stroke:black;stroke-width:1px;"/>
            </g>
            <g transform="matrix(1.45862,0,0,1.45862,375.483,1037.28)">
                <rect x="0" y="0" width="60" height="60" style="fill-opacity:0;"/>
            </g>
            <g transform="matrix(1.45862,0,0,1.45862,375.483,1037.28)">
                <rect x="0" y="0" width="60" height="60" style="fill:none;stroke:black;stroke-width:1px;"/>
            </g>
            <g transform="matrix(1.45862,0,0,1.45862,477.586,993.517)">
                <rect x="0" y="0" width="60" height="60" style="fill-opacity:0;"/>
            </g>
            <g transform="matrix(1.45862,0,0,1.45862,477.586,993.517)">
                <rect x="0" y="0" width="60" height="60" style="fill:none;stroke:black;stroke-width:1px;"/>
            </g>
            <g transform="matrix(1.45862,0,0,1.45862,579.69,949.758)">
                <rect x="0" y="0" width="60" height="60" style="fill-opacity:0;"/>
            </g>
            <g transform="matrix(1.45862,0,0,1.45862,579.69,949.758)">
                <rect x="0" y="0" width="60" height="60" style="fill:none;stroke:black;stroke-width:1px;"/>
            </g>
            <g transform="matrix(1.45862,0,0,1.45862,681.793,906)">
                <rect x="0" y="0" width="60" height="60" style="fill-opacity:0;"/>
            </g>
            <g transform="matrix(1.45862,0,0,1.45862,681.793,906)">
                <rect x="0" y="0" width="60" height="60" style="fill:none;stroke:black;stroke-width:1px;"/>
            </g>
            <g transform="matrix(1.45862,0,0,1.45862,69.1724,322.552)">
                <rect x="-20" y="-180" width="520" height="840" style="fill:none;stroke:black;stroke-width:1px;"/>
            </g>
        </g>
    </g>
</svg>
